HIERARCHY
ROOT Hips
{
	OFFSET 0.000000 0.000000 0.000000
	CHANNELS 6 Xposition Yposition Zposition Zrotation Yrotation Xrotation 
	JOINT LHipJoint
	{
		OFFSET 0.000000 0.000000 0.000000
		CHANNELS 3 Zrotation Yrotation Xrotation
		JOINT LeftUpLeg
		{
			OFFSET 1.363060 -1.794630 0.839290
			CHANNELS 3 Zrotation Yrotation Xrotation
			JOINT LeftLeg
			{
				OFFSET 2.448110 -6.726130 0.000000
				CHANNELS 3 Zrotation Yrotation Xrotation
				JOINT LeftFoot
				{
					OFFSET 2.562200 -7.039590 0.000000
					CHANNELS 3 Zrotation Yrotation Xrotation
					JOINT LeftToeBase
					{
						OFFSET 0.157640 -0.433110 2.322550
						CHANNELS 3 Zrotation Yrotation Xrotation
						End Site
						{
							OFFSET 0.000000 0.000000 0.000000
						}
					}
				}
			}
		}
	}
	JOINT RHipJoint
	{
		OFFSET 0.000000 0.000000 0.000000
		CHANNELS 3 Zrotation Yrotation Xrotation
		JOINT RightUpLeg
		{
			OFFSET -1.305520 -1.794630 0.839290
			CHANNELS 3 Zrotation Yrotation Xrotation
			JOINT RightLeg
			{
				OFFSET -2.542530 -6.985550 0.000000
				CHANNELS 3 Zrotation Yrotation Xrotation
				JOINT RightFoot
				{
					OFFSET -2.568260 -7.056230 0.000000
					CHANNELS 3 Zrotation Yrotation Xrotation
					JOINT RightToeBase
					{
						OFFSET -0.164730 -0.452590 2.363150
						CHANNELS 3 Zrotation Yrotation Xrotation
						End Site
						{
							OFFSET 0.000000 0.000000 0.000000
						}
					}
				}
			}
		}
	}
	JOINT LowerBack
	{
		OFFSET 0.000000 0.000000 0.000000
		CHANNELS 3 Zrotation Yrotation Xrotation
		JOINT Spine
		{
			OFFSET 0.028270 2.035590 -0.193380
			CHANNELS 3 Zrotation Yrotation Xrotation
			JOINT Spine1
			{
				OFFSET 0.056720 2.048850 -0.042750
				CHANNELS 3 Zrotation Yrotation Xrotation
				JOINT Neck
				{
					OFFSET 0.000000 0.000000 0.000000
					CHANNELS 3 Zrotation Yrotation Xrotation
					JOINT Neck1
					{
						OFFSET -0.054170 1.746240 0.172020
						CHANNELS 3 Zrotation Yrotation Xrotation
						JOINT Head
						{
							OFFSET 0.104070 1.761360 -0.123970
							CHANNELS 3 Zrotation Yrotation Xrotation
							End Site
							{
								OFFSET 0.000000 0.000000 0.000000
							}
						}
					}
				}
				JOINT LeftShoulder
				{
					OFFSET 0.000000 0.000000 0.000000
					CHANNELS 3 Zrotation Yrotation Xrotation
					JOINT LeftArm
					{
						OFFSET 3.362410 1.200890 -0.311210
						CHANNELS 3 Zrotation Yrotation Xrotation
						JOINT LeftForeArm
						{
							OFFSET 4.983000 -0.000000 -0.000000
							CHANNELS 3 Zrotation Yrotation Xrotation
							JOINT LeftHand
							{
								OFFSET 3.483560 -0.000000 -0.000000
								CHANNELS 3 Zrotation Yrotation Xrotation
								JOINT LeftFingerBase
								{
									OFFSET 0.000000 0.000000 0.000000
									CHANNELS 3 Zrotation Yrotation Xrotation
									JOINT LeftHandIndex1
									{
										OFFSET 0.715260 -0.000000 -0.000000
										CHANNELS 3 Zrotation Yrotation Xrotation
										End Site
										{
											OFFSET 0.000000 0.000000 0.000000
										}
									}
								}
								JOINT LThumb
								{
									OFFSET 0.000000 0.000000 0.000000
									CHANNELS 3 Zrotation Yrotation Xrotation
									End Site
									{
										OFFSET 0.000000 0.000000 0.000000
									}
								}
							}
						}
					}
				}
				JOINT RightShoulder
				{
					OFFSET 0.000000 0.000000 0.000000
					CHANNELS 3 Zrotation Yrotation Xrotation
					JOINT RightArm
					{
						OFFSET -3.136600 1.374050 -0.404650
						CHANNELS 3 Zrotation Yrotation Xrotation
						JOINT RightForeArm
						{
							OFFSET -5.241900 -0.000000 -0.000000
							CHANNELS 3 Zrotation Yrotation Xrotation
							JOINT RightHand
							{
								OFFSET -3.444170 -0.000000 -0.000000
								CHANNELS 3 Zrotation Yrotation Xrotation
								JOINT RightFingerBase
								{
									OFFSET 0.000000 0.000000 0.000000
									CHANNELS 3 Zrotation Yrotation Xrotation
									JOINT RightHandIndex1
									{
										OFFSET -0.622530 -0.000000 -0.000000
										CHANNELS 3 Zrotation Yrotation Xrotation
										End Site
										{
											OFFSET 0.000000 0.000000 0.000000
										}
									}
								}
								JOINT RThumb
								{
									OFFSET 0.000000 0.000000 0.000000
									CHANNELS 3 Zrotation Yrotation Xrotation
									End Site
									{
										OFFSET 0.000000 0.000000 0.000000
									}
								}
							}
						}
					}
				}
			}
		}
	}
}
MOTION
Frames: 6
Frame Time: 0.008333
2.923937 15.931146 1.196501 179.090033 -77.779866 -133.090188 -8.728032 0.857095 -2.224726 -26.065985 6.626563 -76.459600 -4.011535 5.078779 48.141439 3.659081 11.885361 -19.712125 -2.089000 0.000001 -36.089300 8.457741 2.301705 1.257460 8.115709 -3.507519 -77.944001 3.665743 -4.947767 43.554440 0.497083 4.710948 -7.256448 0.111300 -0.000000 -69.098900 3.300540 -3.313564 4.557329 0.399691 -3.405161 -2.394047 -4.761288 -3.333863 -1.755101 10.595146 -16.033229 -9.236996 -1.951865 -0.088614 -0.994344 0.000000 0.000000 0.000000 16.897617 1.432436 0.168165 -75.983542 4.041619 7.304187 179.520998 -51.387992 179.867053 12.032143 -3.745361 -0.482837 -0.281363 0.764464 -0.000000 0.000000 0.000000 0.000000 0.000000 0.000000 0.000000 1.458389 -11.076404 1.150523 73.764420 -0.266772 21.957003 179.894038 64.781064 179.846324 -18.328999 5.561049 -1.025935 0.467265 -0.657853 -0.000000 0.000000 0.000000 0.000000 0.000000 0.000000 0.000000 
2.928940 15.919819 1.198006 178.882410 -77.931088 -132.939841 -8.720215 0.820911 -2.223607 -25.950135 6.488865 -76.500960 -3.959783 5.091382 48.425409 3.680515 11.976487 -19.793506 -2.122200 -0.000000 -36.102100 8.465572 2.315613 1.200151 8.149612 -3.653777 -78.043509 3.647684 -5.006172 43.907264 0.485498 4.704318 -7.426394 0.107401 0.000000 -69.165800 3.240452 -3.270873 4.612547 0.387280 -3.357766 -2.385667 -4.726719 -3.287010 -1.775545 10.596141 -15.943002 -9.215951 -1.975332 -0.090584 -0.991168 0.000000 0.000000 0.000000 16.856790 1.489354 0.154585 -76.083863 3.879494 7.453618 179.509989 -51.463198 179.866507 12.055506 -3.757376 -0.485178 -0.281162 0.765458 -0.000000 0.000000 0.000000 0.000000 0.000000 0.000000 0.000000 1.661214 -10.998357 1.164662 73.734227 -0.327345 21.826948 179.890072 65.365010 179.846950 -18.394016 5.578957 -1.031563 0.463766 -0.652827 -0.000000 0.000000 0.000000 0.000000 0.000000 0.000000 0.000000 
2.934188 15.908411 1.199209 178.669812 -78.099319 -132.795127 -8.712545 0.781285 -2.223722 -25.823105 6.353515 -76.534061 -3.906279 5.103208 48.715127 3.700340 12.063230 -19.873432 -2.155000 0.000000 -36.122600 8.473320 2.328968 1.136547 8.192933 -3.811321 -78.130010 3.629439 -5.066024 44.270448 0.472609 4.694297 -7.606125 0.103000 -0.000000 -69.235700 3.178593 -3.223368 4.674636 0.374853 -3.305184 -2.376754 -4.687538 -3.235113 -1.799560 10.588982 -15.833342 -9.188866 -2.001818 -0.092878 -0.986370 0.000000 0.000000 0.000000 16.805619 1.550452 0.141984 -76.200380 3.719345 7.612238 179.497374 -51.541476 179.865929 12.080184 -3.772212 -0.487922 -0.280840 0.766533 -0.000000 0.000000 0.000000 0.000000 0.000000 0.000000 0.000000 1.874868 -10.900358 1.179223 73.695857 -0.386777 21.678416 179.887269 66.006021 179.847570 -18.474061 5.586750 -1.036196 0.460152 -0.647006 0.000000 0.000000 0.000000 0.000000 0.000000 0.000000 0.000000 
2.939597 15.896966 1.200199 178.452682 -78.287056 -132.656335 -8.705615 0.738274 -2.224650 -25.684019 6.220056 -76.557718 -3.851182 5.114062 49.008960 3.718222 12.144203 -19.951251 -2.186900 -0.000000 -36.151199 8.480565 2.341675 1.066133 8.246669 -3.981613 -78.201309 3.611254 -5.127018 44.642051 0.458271 4.679922 -7.794726 0.098000 0.000000 -69.307200 3.117224 -3.170923 4.743601 0.362845 -3.247395 -2.367417 -4.644113 -3.178146 -1.827360 10.572807 -15.702663 -9.155541 -2.031530 -0.095518 -0.979879 0.000000 0.000000 0.000000 16.742998 1.615478 0.130861 -76.334614 3.562203 7.779294 179.483504 -51.622738 179.865337 12.104619 -3.789573 -0.490969 -0.280357 0.767683 -0.000000 0.000000 0.000000 0.000000 0.000000 0.000000 0.000000 2.097650 -10.780341 1.194326 73.650056 -0.445774 21.507517 179.885663 66.698954 179.848220 -18.562982 5.583964 -1.039334 0.456282 -0.640448 -0.000000 0.000000 0.000000 0.000000 0.000000 0.000000 0.000000 
2.945252 15.885662 1.201085 178.229460 -78.496180 -132.524992 -8.699913 0.691691 -2.226393 -25.531407 6.089012 -76.569303 -3.794675 5.123691 49.304552 3.733776 12.217919 -20.026684 -2.217600 0.000000 -36.187300 8.486741 2.353942 0.987779 8.311963 -4.166613 -78.253415 3.593276 -5.188721 45.019736 0.442365 4.660319 -7.990965 0.092500 -0.000000 -69.379700 3.059211 -3.113273 4.820571 0.351762 -3.184245 -2.357382 -4.597074 -3.115902 -1.858660 10.546819 -15.549748 -9.115943 -2.064485 -0.098503 -0.971670 0.000000 0.000000 0.000000 16.666520 1.686958 0.121636 -76.485530 3.405601 7.956471 179.469068 -51.709153 179.864718 12.130113 -3.807518 -0.494118 -0.279814 0.768849 -0.000000 0.000000 0.000000 0.000000 0.000000 0.000000 0.000000 2.326588 -10.636841 1.209702 73.599426 -0.503534 21.309334 179.885414 67.435917 179.848931 -18.654122 5.570199 -1.040778 0.452010 -0.633244 0.000000 0.000000 0.000000 0.000000 0.000000 0.000000 0.000000 
2.951032 15.874598 1.201888 177.998780 -78.728741 -132.399702 -8.695983 0.641539 -2.228691 -25.364333 5.959959 -76.566455 -3.736948 5.131718 49.599332 3.746726 12.283418 -20.098742 -2.246800 0.000000 -36.230800 8.491459 2.365628 0.900820 8.389795 -4.367557 -78.283104 3.575686 -5.250690 45.401044 0.424688 4.634162 -8.193617 0.086500 0.000000 -69.451300 3.006370 -3.050252 4.905947 0.341933 -3.115651 -2.346539 -4.546829 -3.048269 -1.893360 10.510774 -15.373169 -9.070052 -2.100620 -0.101826 -0.961759 0.000000 0.000000 0.000000 16.575292 1.766508 0.114665 -76.653550 3.247785 8.144861 179.454500 -51.802040 179.864084 12.156448 -3.824971 -0.497169 -0.279230 0.770005 -0.000000 0.000000 0.000000 0.000000 0.000000 0.000000 0.000000 2.559485 -10.468128 1.225238 73.546054 -0.560062 21.079285 179.886697 68.210892 179.849717 -18.743171 5.545466 -1.040030 0.447250 -0.625483 -0.000000 0.000000 0.000000 0.000000 0.000000 0.000000 0.000000 
